<svg width="563" height="563" xmlns="http://www.w3.org/2000/svg" version="1.1" enable-background="new 0 0 563 563" xml:space="preserve">
 <g>
  <title>Layer 1</title>
  <path fill="#fff" d="m564.16788,198c0,122.33331 0,244.16663 0,366c-187.66663,0 -375.33325,0 -562.99992,0c-0.00003,-187.66659 -0.00003,-375.33322 -0.00005,-562.99987c187.66655,-0.00004 375.33313,-0.00004 562.99985,-0.00009c0.00012,65.49996 0.00012,130.99996 0.00012,196.99996m-26,191.5c0,-26.49576 0,-52.99155 0,-79.4873c0,-40.66028 0.00934,-81.32055 -0.00842,-121.98082c-0.00324,-7.49579 -5.96918,-11.12204 -12.6463,-7.77553c-5.33417,2.67338 -5.29139,7.7599 -5.29566,12.53221c-0.07001,77.98765 -0.04016,155.97545 -0.09729,233.96315c-0.00165,2.21979 -0.28937,4.62335 -1.16449,6.62634c-3.57336,8.17923 -10.66125,10.59906 -18.85223,10.60071c-145.31049,0.02933 -290.62099,0.02124 -435.93149,0.02124c-0.49992,0 -1.00076,0.01993 -1.49963,-0.00296c-10.84158,-0.49738 -18.69117,-7.39041 -18.66075,-18.80566c0.2691,-100.9834 0.313,-201.96842 -0.04785,-302.95125c-0.04368,-12.22473 8.06483,-19.30441 19.64647,-19.2908c81.32044,0.09558 162.64104,0.05183 243.9616,0.04858c6.80975,-0.00027 10.93344,-5.71397 8.548,-12.02898c-2.02426,-5.35874 -6.75878,-5.94724 -11.5639,-5.94901c-76.82126,-0.02826 -153.64255,-0.04363 -230.46375,0.02338c-6.41064,0.00559 -12.83464,0.45625 -19.22834,0.98909c-15.30831,1.27579 -28.72509,16.32326 -28.71885,31.31885c0.04336,104.15027 -0.03936,208.30068 0.11149,312.45076c0.01653,11.41468 5.97355,19.92154 15.38042,26.33817c6.79315,4.63372 14.39659,5.74807 22.13442,5.78036c40.65957,0.1698 81.32021,0.07947 121.98049,0.07947c1.75711,0 3.51423,0 5.86627,0c-3.04565,7.9747 -5.78967,15.29398 -8.69487,22.54877c-0.27573,0.68853 -1.52017,1.27289 -2.38536,1.39148c-3.39272,0.46518 -6.82759,0.62127 -10.22147,1.0798c-8.92077,1.20526 -17.24688,3.61014 -23.99958,10.22c-6.31258,6.17905 -8.69979,13.49921 -9.50817,22.15955c-0.89132,9.54931 7.69451,18.68994 15.28403,18.67907c86.65288,-0.12384 173.30607,-0.04132 259.95869,-0.23132c3.08622,-0.00677 6.55063,-1.71844 9.18195,-3.56927c9.25967,-6.51313 7.50378,-21.53614 2.12082,-30.4151c-6.96384,-11.48658 -18.08936,-16.05976 -31.13492,-16.9415c-3.61667,-0.24445 -9.19543,-0.30374 -10.37823,-2.41056c-3.84797,-6.85409 -6.07755,-14.61676 -9.11524,-22.51092c2.53021,0 4.34836,0 6.1665,0c40.66028,0 81.32062,0.03159 121.98075,-0.05078c3.90558,-0.00791 7.95495,-0.19113 11.68881,-1.20719c14.48462,-3.94143 25.92847,-16.8547 25.65003,-32.74868c-0.21894,-12.49423 -0.04395,-24.9953 -0.04395,-38.49335m-264.5,-270.5c-57.66629,0 -115.33263,-0.03044 -172.99883,0.04382c-6.24474,0.00804 -12.48542,0.80158 -18.73376,0.91655c-11.85938,0.2182 -21.86676,13.88605 -21.84684,24.0593c0.14689,74.9987 0.10173,149.99785 0.05758,224.99684c-0.0074,12.5744 11.44443,24.02539 23.91823,24.00006c26.6662,-0.05417 53.33259,-0.01657 79.9989,-0.01657c105.49858,0 210.99721,0.02655 316.49574,-0.03522c12.48795,-0.00732 23.45725,-10.77557 23.5026,-22.73611c0.23071,-60.83167 0.11453,-121.66464 0.09475,-182.49716c-0.00216,-6.60431 -6.06942,-10.39243 -12.02276,-7.76494c-5.22336,2.30531 -5.94782,6.79381 -5.94986,11.62388c-0.02439,57.83257 -0.0148,115.66513 -0.01691,173.49769c-0.00027,7.28866 -2.51642,9.90905 -9.55176,9.90927c-129.66495,0.00351 -259.32986,0.00369 -388.9948,-0.00052c-6.79882,-0.00025 -9.44903,-2.66996 -9.44945,-9.5094c-0.00455,-72.99903 0.04581,-145.99816 -0.13384,-218.99674c-0.00989,-4.02121 1.76806,-6.57914 4.50433,-8.07193c2.398,-1.30822 5.67236,-1.35752 8.56122,-1.36526c31.83268,-0.08525 63.66568,-0.05356 95.49858,-0.05356c40.49945,0 80.99904,-0.04509 121.49819,0.06516c4.36508,0.01187 6.88031,-2.08309 7.99349,-5.75416c2.05182,-6.76639 -2.67233,-12.23422 -10.42538,-12.29197c-10.33261,-0.07698 -20.66623,-0.01903 -31.99942,-0.01903m-37.47217,146.30118c0.19238,0.26977 0.43591,0.51651 0.56943,0.81277c2.02034,4.48331 7.52246,6.90821 7.41158,12.66336c-0.18621,9.66373 -4.61332,17.63513 -13.01932,21.27216c-7.9477,3.43875 -17.02489,4.78006 -25.75063,5.79831c-17.02801,1.98718 -30.09564,12.55041 -34.02337,30.854c-2.73201,12.73139 4.88136,22.33441 17.59469,22.32004c47.98757,-0.05429 95.97522,-0.02182 143.96286,-0.02182c14.8295,0 29.65909,0.02603 44.4885,-0.01187c6.63079,-0.01694 15.17324,-6.41318 15.63668,-12.40668c1.06583,-13.78384 -3.73312,-25.09402 -14.96798,-33.63705c-10.07276,-7.65937 -22.08939,-8.02573 -33.6865,-8.698c-11.80749,-0.68439 -20.84451,-5.54559 -28.34317,-13.97015c-4.95568,-5.5676 -5.47741,-12.85941 -2.35565,-17.41288c3.44739,-5.02829 6.52573,-10.31347 9.67706,-15.5397c2.37735,-3.94254 3.94819,-8.60948 7.04331,-11.83621c9.09598,-9.48276 12.68094,-20.83965 11.50403,-33.40233c-0.6525,-6.96504 -3.46625,-13.64623 -10.79413,-17.27689c-1.88034,-0.93164 -3.42941,-3.92523 -3.83609,-6.20274c-2.03787,-11.41188 -8.50174,-19.70403 -17.34415,-26.65273c-14.41049,-11.32434 -31.54568,-9.59874 -47.28619,-7.18292c-19.03685,2.92176 -30.92978,16.11141 -34.6226,35.71816c-0.29902,1.58751 -1.8285,3.33348 -3.26806,4.24383c-4.58363,2.89859 -7.91491,6.61974 -9.63685,11.81533c-1.87313,5.65177 -2.51462,11.33721 -0.97736,17.15862c2.19753,8.32172 4.96536,16.29941 11.54749,22.43528c1.96917,1.83569 3.46251,4.30429 4.76477,6.70485c2.06225,3.80148 3.77983,7.78994 5.71165,12.45526m261.47217,-239.30118c-49.30493,0 -98.60986,-0.00023 -147.9148,0.0002c-9.8554,0.00008 -16.57681,6.6504 -16.58035,16.47278c-0.01248,34.64675 0.10443,69.29411 -0.08633,103.93982c-0.04431,8.0498 7.60089,16.39999 16.27389,16.57771c2.91587,0.05975 5.83399,0.00944 7.94138,0.00944c1.01349,6.07232 0.97989,11.70708 2.95746,16.51453c4.22812,10.27834 16.03183,13.34065 25.85763,7.02737c10.69379,-6.87094 21.19266,-14.04707 31.93851,-20.8336c2.31925,-1.46473 5.32602,-2.57942 8.02316,-2.59453c31.64746,-0.17723 63.29636,-0.09494 94.9448,-0.12672c8.06878,-0.00809 17.33825,-5.55386 17.24603,-17.01239c-0.27997,-34.81108 -0.09674,-69.62585 -0.10474,-104.43917c-0.00195,-8.44067 -7.0802,-15.51921 -15.51043,-15.53269c-7.99543,-0.01279 -15.99082,-0.00275 -24.98621,-0.00275m-197,384c-20.65454,0 -41.30911,-0.02023 -61.96362,0.01352c-5.50273,0.00897 -9.02169,5.30643 -7.66139,10.58939c1.13452,4.40603 4.70696,7.3619 12.13679,7.3771c25.48492,0.05206 50.97012,0.05045 76.45492,-0.02429c2.73041,-0.008 5.50013,-0.43869 8.17762,-1.0163c2.99554,-0.64618 6.68344,-6.16897 6.32916,-9.02945c-0.50354,-4.06558 -4.55054,-7.88403 -8.48761,-7.90017c-7.99518,-0.03281 -15.99057,-0.0098 -24.98587,-0.0098z" id="svg_1"/>
  <path fill="#298AE5" d="m538,390c0,12.99805 -0.17499,25.49912 0.04395,37.99335c0.27844,15.89398 -11.16541,28.80725 -25.65003,32.74868c-3.73386,1.01606 -7.78323,1.19928 -11.68881,1.20719c-40.66013,0.08237 -81.32047,0.05078 -121.98075,0.05078c-1.81814,0 -3.63629,0 -6.1665,0c3.03769,7.89416 5.26727,15.65683 9.11524,22.51092c1.1828,2.10682 6.76156,2.16611 10.37823,2.41056c13.04556,0.88174 24.17108,5.45492 31.13492,16.9415c5.38296,8.87896 7.13885,23.90197 -2.12082,30.4151c-2.63132,1.85083 -6.09573,3.5625 -9.18195,3.56927c-86.65262,0.19 -173.30581,0.10748 -259.95869,0.23132c-7.58952,0.01087 -16.17535,-9.12976 -15.28403,-18.67907c0.80838,-8.66034 3.19559,-15.9805 9.50817,-22.15955c6.7527,-6.60986 15.07881,-9.01474 23.99958,-10.22c3.39388,-0.45853 6.82875,-0.61462 10.22147,-1.0798c0.86519,-0.11859 2.10963,-0.70295 2.38536,-1.39148c2.9052,-7.25479 5.64922,-14.57407 8.69487,-22.54877c-2.35204,0 -4.10916,0 -5.86627,0c-40.66028,0 -81.32092,0.09033 -121.98049,-0.07947c-7.73783,-0.03229 -15.34127,-1.14664 -22.13442,-5.78036c-9.40687,-6.41663 -15.36389,-14.92349 -15.38042,-26.33817c-0.15085,-104.15008 -0.06813,-208.30049 -0.11149,-312.45076c-0.00624,-14.99559 13.41054,-30.04306 28.71885,-31.31885c6.3937,-0.53284 12.8177,-0.9835 19.22834,-0.98909c76.8212,-0.06701 153.64249,-0.05164 230.46375,-0.02338c4.80512,0.00177 9.53964,0.59027 11.5639,5.94901c2.38544,6.31501 -1.73825,12.02871 -8.548,12.02898c-81.32056,0.00325 -162.64116,0.047 -243.9616,-0.04858c-11.58164,-0.01361 -19.69015,7.06607 -19.64647,19.2908c0.36085,100.98283 0.31695,201.96785 0.04785,302.95125c-0.03042,11.41525 7.81917,18.30828 18.66075,18.80566c0.49887,0.02289 0.99971,0.00296 1.49963,0.00296c145.3105,0 290.621,0.00809 435.93149,-0.02124c8.19098,-0.00165 15.27887,-2.42148 18.85223,-10.60071c0.87512,-2.00299 1.16284,-4.40655 1.16449,-6.62634c0.05713,-77.9877 0.02728,-155.9755 0.09729,-233.96315c0.00427,-4.77231 -0.03851,-9.85883 5.29566,-12.53221c6.67712,-3.34651 12.64306,0.27974 12.6463,7.77553c0.01776,40.66027 0.00842,81.32054 0.00842,121.98082c0,26.49575 0,52.99154 0,79.9873m-184.5,130c18.45795,0 36.91586,0 55.37381,0c0.42126,-0.40808 0.84253,-0.81622 1.26382,-1.2243c-1.83447,-2.8863 -3.28656,-6.12867 -5.57782,-8.58963c-5.95367,-6.39457 -14.47754,-5.95951 -21.91424,-5.96369c-70.54205,-0.03979 -141.0846,0.41507 -211.62648,0.81519c-8.6866,0.04925 -16.17433,7.20474 -15.79476,14.96243c65.74524,0 131.51044,0 198.27567,0m-83,-34c30.42343,0 60.84689,0 91.68521,0c-3.26666,-8.33276 -6.33923,-16.1705 -9.31876,-23.77075c-47.54824,0 -94.60919,0 -141.71644,0c-3.12677,7.87161 -6.18132,15.56143 -9.44222,23.77075c22.91945,0 45.35584,0 68.79221,0z" id="svg_2"/>
  <path fill="#298ffAE5" d="m274,119c10.83319,0 21.16681,-0.05795 31.49942,0.01903c7.75305,0.05775 12.4772,5.52558 10.42538,12.29197c-1.11318,3.67107 -3.62841,5.76603 -7.99349,5.75416c-40.49915,-0.11025 -80.99874,-0.06516 -121.49819,-0.06516c-31.8329,0 -63.6659,-0.03169 -95.49858,0.05356c-2.88886,0.00774 -6.16322,0.05704 -8.56122,1.36526c-2.73627,1.49279 -4.51422,4.05072 -4.50433,8.07193c0.17965,72.99858 0.12929,145.99771 0.13384,218.99674c0.00042,6.83944 2.65063,9.50915 9.44945,9.5094c129.66494,0.00421 259.32985,0.00403 388.9948,0.00052c7.03534,-0.00022 9.55149,-2.62061 9.55176,-9.90927c0.00211,-57.83256 -0.00748,-115.66512 0.01691,-173.49769c0.00204,-4.83007 0.7265,-9.31857 5.94986,-11.62388c5.95334,-2.62749 12.0206,1.16063 12.02276,7.76494c0.01978,60.83252 0.13596,121.66549 -0.09475,182.49716c-0.04535,11.96054 -11.01465,22.72879 -23.5026,22.73611c-105.49853,0.06177 -210.99716,0.03522 -316.49574,0.03522c-26.66631,0 -53.3327,-0.0376 -79.9989,0.01657c-12.4738,0.02533 -23.92563,-11.42566 -23.91823,-24.00006c0.04415,-74.99899 0.08931,-149.99814 -0.05758,-224.99684c-0.01992,-10.17325 9.98746,-23.8411 21.84684,-24.0593c6.24834,-0.11497 12.48902,-0.90851 18.73377,-0.91655c57.66619,-0.07426 115.33253,-0.04382 173.49882,-0.04382z" id="svg_3"/>
  <path fill="#298AE5" d="m235.99362,264.92319c-1.89761,-4.28733 -3.61519,-8.27579 -5.67744,-12.07727c-1.30226,-2.40056 -2.7956,-4.86916 -4.76477,-6.70485c-6.58213,-6.13587 -9.34996,-14.11356 -11.54749,-22.43528c-1.53726,-5.82141 -0.89577,-11.50685 0.97736,-17.15862c1.72194,-5.19559 5.05322,-8.91674 9.63685,-11.81533c1.43956,-0.91035 2.96904,-2.65632 3.26806,-4.24383c3.69282,-19.60675 15.58575,-32.7964 34.6226,-35.71816c15.74051,-2.41582 32.8757,-4.14142 47.28619,7.18292c8.84241,6.9487 15.30628,15.24085 17.34415,26.65273c0.40668,2.27751 1.95575,5.2711 3.83609,6.20274c7.32788,3.63066 10.14163,10.31185 10.79413,17.27689c1.17691,12.56268 -2.40805,23.91957 -11.50403,33.40233c-3.09512,3.22673 -4.66596,7.89367 -7.04331,11.83621c-3.15133,5.22623 -6.22967,10.51141 -9.67706,15.5397c-3.12176,4.55347 -2.60003,11.84528 2.35565,17.41288c7.49866,8.42456 16.53568,13.28576 28.34317,13.97015c11.59711,0.67227 23.61374,1.03863 33.6865,8.698c11.23486,8.54303 16.03381,19.85321 14.96798,33.63705c-0.46344,5.9935 -9.00589,12.38974 -15.63668,12.40668c-14.82941,0.0379 -29.659,0.01187 -44.4885,0.01187c-47.98764,0 -95.97529,-0.03247 -143.96286,0.02182c-12.71333,0.01437 -20.3267,-9.58865 -17.59469,-22.32004c3.92773,-18.30359 16.99536,-28.86682 34.02337,-30.854c8.72574,-1.01825 17.80293,-2.35956 25.75063,-5.79831c8.406,-3.63703 12.83311,-11.60843 13.01932,-21.27216c0.11088,-5.75515 -5.39124,-8.18005 -7.41158,-12.66336c-0.13352,-0.29626 -0.37705,-0.543 -0.60364,-1.19076m8.5938,-27.85584c3.13652,7.30127 5.27484,15.27011 9.61796,21.76447c8.95948,13.39721 23.71155,19.38791 39.27738,8.30737c8.50235,-6.05243 12.57263,-14.71612 15.62576,-24.26729c1.0863,-3.39836 2.66083,-7.42012 5.32172,-9.37808c6.07211,-4.468 9.87402,-10.81944 8.42898,-17.93182c-0.27752,-1.366 -2.07675,-2.9966 -3.50647,-3.44498c-3.9678,-1.24443 -7.83652,-2.25255 -8.41159,-7.28417c-0.31219,-2.73126 -1.03515,-5.48765 -0.86636,-8.18858c0.55298,-8.84808 -8.6467,-20.011 -16.39588,-22.86313c-8.15417,-3.00114 -16.36431,-1.86229 -24.42489,-1.46834c-4.92722,0.24079 -10.36383,2.66887 -14.40813,5.6783c-7.86355,5.85143 -10.36938,14.50693 -9.92256,24.24718c0.31313,6.82596 -5.1844,10.86626 -11.80814,9.23804c-3.46327,7.9199 0.39866,18.45384 7.9888,22.1729c1.16483,0.57073 1.97065,1.87416 3.48342,3.41813m-27.77809,84.96814c-3.48983,0.65476 -6.97802,1.31851 -10.46981,1.96259c-9.70988,1.79101 -15.53936,7.17941 -17.14828,16.78558c61.88618,0 123.75319,0 185.65092,0c-1.31848,-9.21957 -8.98034,-15.75775 -17.14608,-16.81244c-9.32081,-1.20389 -18.5969,-2.7615 -27.92493,-3.89859c-4.90381,-0.59781 -9.21414,-3.15396 -14.96405,-0.84085c-7.80188,3.13864 -16.47089,5.00427 -24.88797,5.5437c-16.48422,1.05649 -32.96396,0.32996 -48.51332,-6.59775c-1.43711,-0.64029 -3.52033,-0.09277 -5.2452,0.22254c-6.16137,1.12628 -12.29759,2.39035 -19.35128,3.63522m61.61486,-31.03552c-5.68676,-0.79904 -11.37356,-1.59808 -16.76974,-2.35632c-2.27667,4.96124 -4.64948,10.13192 -6.93124,15.10424c15.83001,3.21213 31.88256,4.25663 47.70727,0.11438c-2.8129,-5.26461 -5.63809,-10.55224 -8.30545,-15.54449c-4.99689,0.90701 -9.88687,1.79465 -15.70084,2.68219z" id="svg_4"/>
  <path fill="#298AE5" d="m498,26c8.49539,0 16.49078,-0.01004 24.48621,0.00275c8.43023,0.01348 15.50848,7.09202 15.51043,15.53269c0.008,34.81332 -0.17523,69.62809 0.10474,104.43917c0.09222,11.45853 -9.17725,17.0043 -17.24603,17.01239c-31.64844,0.03178 -63.29734,-0.05051 -94.9448,0.12672c-2.69714,0.01511 -5.70391,1.1298 -8.02316,2.59453c-10.74585,6.78653 -21.24472,13.96266 -31.93851,20.8336c-9.8258,6.31328 -21.62951,3.25097 -25.85763,-7.02737c-1.97757,-4.80745 -1.94397,-10.44221 -2.95746,-16.51453c-2.10739,0 -5.02551,0.05031 -7.94138,-0.00944c-8.673,-0.17772 -16.3182,-8.52791 -16.27389,-16.57771c0.19076,-34.64571 0.07385,-69.29307 0.08633,-103.93982c0.00354,-9.82238 6.72495,-16.4727 16.58035,-16.47278c49.30494,-0.00043 98.60987,-0.0002 148.4148,-0.0002m22,108.47693c0,-30.08413 0,-60.16826 0,-90.21653c-56.61993,0 -112.67404,0 -168.75333,0c0,33.65813 0,67.05527 0,100.75649c7.42786,-0.25374 14.76346,-0.56053 20.35486,5.12817c5.67587,5.77462 4.32251,13.27834 4.40525,20.63076c1.15069,-0.46601 2.12579,-0.68218 2.89749,-1.20093c8.29477,-5.57578 16.74331,-10.94769 24.77533,-16.88222c7.65057,-5.65271 15.73703,-8.03888 25.38961,-7.8703c28.47852,0.49738 56.97129,0.17763 85.4585,0.17763c1.76141,0 3.52283,0 5.47229,0c0,-3.57405 0,-6.55385 0,-10.52307z" id="svg_5"/>
  <path fill="#298AE5" d="m301,410c8.4953,0 16.49069,-0.02301 24.48587,0.0098c3.93707,0.01614 7.98407,3.83459 8.48761,7.90017c0.35428,2.86048 -3.33362,8.38327 -6.32916,9.02945c-2.67749,0.57761 -5.44721,1.0083 -8.17762,1.0163c-25.4848,0.07474 -50.97,0.07635 -76.45492,0.02429c-7.42983,-0.0152 -11.00227,-2.97107 -12.13679,-7.3771c-1.3603,-5.28296 2.15866,-10.58042 7.66139,-10.58939c20.65451,-0.03375 41.30908,-0.01352 62.46362,-0.01352z" id="svg_6"/>
  <path fill="#298AE5" id="svg_8"/>
  <path fill="#298AE5" id="svg_11"/>
  <path fill="#298AE5" d="m393.00073,112c-6.89795,-0.30398 -13.38202,-0.07276 -19.66702,-1.08167c-5.008,-0.80392 -6.98535,-4.82513 -6.33252,-9.95887c0.48447,-3.80973 4.50583,-6.9532 8.99847,-6.95423c39.32495,-0.00904 78.64991,-0.00611 117.97486,-0.0044c6.93405,0.00031 9.65164,2.53239 10.09469,8.43059c0.50397,6.70869 -4.38909,9.26814 -10.09256,9.50958c-6.15429,0.26054 -12.32821,0.059 -18.49356,0.059c-27.32751,0.00001 -54.65503,0 -82.48236,0z" id="svg_13"/>
  <path fill="#298AE5" d="m433,60c20.32321,0 40.14642,-0.01051 59.96963,0.00654c5.78086,0.00497 9.33805,2.97965 10.76923,7.06434c2.17627,6.2111 -4.33554,11.05838 -10.6589,10.99325c-17.82233,-0.18357 -35.64777,-0.06413 -53.47199,-0.06413c-19.82321,0 -39.64642,0.0064 -59.46963,-0.00453c-4.91132,-0.00271 -11.41294,-3.56116 -12.45703,-6.76393c-2.15345,-6.60566 1.24096,-11.21451 8.34753,-11.22348c18.8237,-0.02376 37.64743,-0.00806 56.97116,-0.00806z" id="svg_14"/>
 </g>

</svg>