<svg version="1.1" id="Layer_1"
    xmlns="http://www.w3.org/2000/svg"
    xmlns:xlink="http://www.w3.org/1999/xlink" x="0px" y="0px" width="100%" viewBox="0 0 960 130" enable-background="new 0 0 960 130" xml:space="preserve">
    <path fill="#FEFEFE" opacity="1.000000" stroke="none" d="
M961.000000,92.000000 
	C961.000000,104.994896 961.000000,117.989784 961.000000,130.946350 
	C641.000000,130.946350 321.000000,130.946350 1.000000,130.946350 
	C1.000000,97.905838 1.000000,64.918961 1.395383,31.432276 
	C46.510101,20.076687 91.723663,15.660800 137.587585,21.164202 
	C176.100754,25.785561 212.253845,37.475925 244.887589,58.860706 
	C261.545807,69.776764 279.677002,76.871994 299.049042,80.989037 
	C337.880859,89.241783 376.913696,87.724045 415.896362,82.644424 
	C472.546356,75.262672 527.419800,60.542328 581.165588,41.410492 
	C609.028625,31.492128 636.629089,20.741814 664.818726,11.860862 
	C695.480164,2.201171 727.048401,-0.868508 759.086609,4.509278 
	C795.440430,10.611461 827.398743,26.576530 855.787781,49.405724 
	C886.737915,74.294395 921.628540,88.424690 961.000000,92.000000 
z"/>
</svg>