<svg version="1.1" id="Layer_1"
	xmlns="http://www.w3.org/2000/svg"
	xmlns:xlink="http://www.w3.org/1999/xlink" x="0px" y="0px" width="100%" viewBox="0 0 960 130" enable-background="new 0 0 960 130" xml:space="preserve">
	<path fill="#F2F5F9" opacity="1.000000" stroke="none" d="
M406.154694,56.935501 
	C406.566589,56.953335 406.978455,56.971172 407.841064,57.234833 
	C408.521912,57.742256 408.809875,57.894161 409.155731,57.936371 
	C409.567444,57.953983 409.979187,57.971596 410.841644,58.235512 
	C411.522736,58.742756 411.810699,58.894176 412.156250,58.936081 
	C412.566101,58.954102 412.975983,58.972122 413.773071,59.382271 
	C419.494110,61.899212 424.789764,64.129120 430.183197,66.090034 
	C431.993286,66.748138 434.052460,66.721138 435.997803,67.007278 
	C453.654602,73.818573 471.293945,80.675560 488.977783,87.415970 
	C495.031708,89.723511 501.197021,91.738953 507.731506,94.396339 
	C512.483826,96.249786 516.815979,97.594727 521.148193,98.939667 
	C521.562317,98.956276 521.976501,98.972878 522.839966,99.238976 
	C523.522949,99.744225 523.811523,99.894356 524.155029,99.938866 
	C524.155029,99.938866 524.585449,99.962555 525.030762,100.273178 
	C526.211487,100.966782 526.906555,101.496689 527.688232,101.711502 
	C556.098022,109.519325 585.184814,112.734230 614.503174,113.866737 
	C625.589478,114.294983 636.731506,113.383385 647.844727,112.985947 
	C665.248474,112.363533 682.657715,111.820778 700.048096,110.924118 
	C709.358215,110.444092 718.521790,108.794952 726.764526,104.024628 
	C728.022766,103.296417 728.845154,101.815186 729.869141,100.682228 
	C733.010925,97.265877 736.357178,94.013893 739.258789,90.404480 
	C751.342224,75.373131 766.810181,64.306473 782.799438,54.108814 
	C797.902100,44.476624 813.749573,36.012424 829.847778,27.248150 
	C835.326233,25.615685 840.279297,23.897684 845.117737,21.901800 
	C869.493530,11.846448 894.946899,6.128110 921.128906,4.162921 
	C934.348877,3.170654 947.705261,3.996322 961.000000,4.000000 
	C961.000000,46.314137 961.000000,88.628273 961.000000,131.000000 
	C681.979126,131.000000 402.958221,131.000000 123.468658,131.000000 
	C122.206154,121.548058 121.328392,112.101677 120.700134,102.638741 
	C120.594048,101.040771 121.076752,98.924515 122.108124,97.801331 
	C140.781418,77.465614 160.943710,58.971523 186.836823,47.228981 
	C190.965042,46.237389 194.525040,45.052757 198.069016,43.822002 
	C223.187912,35.098682 249.004456,32.494434 275.407074,34.950146 
	C289.883728,36.296627 304.367218,37.570057 318.842072,38.935169 
	C340.962738,41.021355 362.675385,45.345493 384.137482,51.001350 
	C391.487427,52.938255 398.816223,54.955151 406.154694,56.935501 
z"/>
</svg>