<svg version="1.1" id="Layer_1" xmlns="http://www.w3.org/2000/svg" xmlns:xlink="http://www.w3.org/1999/xlink" x="0px" y="0px"
	 width="100%" viewBox="0 0 960 198" enable-background="new 0 0 960 198" xml:space="preserve">
<path fill="#E5EAF2" opacity="1.000000" stroke="none" 
	d="
M961.000000,6.000000 
	C961.000000,70.311623 961.000000,134.623245 961.000000,198.939743 
	C641.000000,198.944611 321.000000,198.944611 1.000000,198.944611 
	C1.000000,158.902817 1.000000,118.916420 1.468645,78.467926 
	C17.733068,78.716759 33.358250,77.293091 48.781670,73.916763 
	C52.283253,73.150246 55.589180,71.489983 59.352879,70.080948 
	C69.150894,67.626091 78.581200,65.331398 88.261612,63.304497 
	C91.372337,63.046032 94.314491,62.787891 97.079353,61.946873 
	C108.750580,58.396679 120.368988,54.672813 132.403641,51.001999 
	C142.386429,48.085148 152.008926,45.291668 161.534348,42.199097 
	C164.169220,41.343643 166.515244,39.598560 169.333420,38.085762 
	C175.037506,36.213501 180.348892,34.318981 185.778275,32.865002 
	C195.022766,30.389343 204.341415,28.190668 214.092468,25.912476 
	C216.845932,25.747889 219.171631,25.737049 221.419983,25.314518 
	C237.803665,22.235567 254.201431,19.418503 270.983521,19.982203 
	C283.041534,20.387224 295.105194,20.626146 307.385223,20.949575 
	C307.604126,20.959986 308.011658,21.121264 308.301971,21.381508 
	C310.448364,21.741705 312.304443,21.841654 314.380310,21.953947 
	C314.600098,21.966290 315.011444,22.123186 315.291016,22.379488 
	C317.099762,22.738108 318.628937,22.840425 320.380432,22.956640 
	C320.602814,22.970537 321.020691,23.125212 321.269012,23.372236 
	C322.677521,23.752247 323.837708,23.885233 325.265686,24.292671 
	C330.397552,25.349020 335.261627,26.130913 340.084137,26.924206 
	C340.042603,26.935602 340.061096,26.851463 340.275513,27.157354 
	C341.717590,27.620083 342.945312,27.776920 344.387878,27.949230 
	C344.602753,27.964703 345.006744,28.114553 345.252686,28.361023 
	C347.661194,28.754761 349.823761,28.902031 352.382263,29.030451 
	C402.015594,40.776875 449.861176,58.052414 500.116150,66.565033 
	C502.206604,67.264786 504.193024,67.600700 506.397888,67.941208 
	C506.616333,67.945786 507.015991,68.122559 507.309814,68.385147 
	C509.775452,68.739937 511.947296,68.832130 514.077637,68.932213 
	C514.036133,68.940094 514.039185,68.855637 514.290222,69.178925 
	C517.090698,69.645676 519.640076,69.789146 522.406494,69.934372 
	C522.623413,69.936134 523.016968,70.118675 523.324097,70.386375 
	C526.817261,70.746826 530.003296,70.839577 533.497986,70.927917 
	C534.209473,70.991158 534.612305,71.058815 535.327759,71.393478 
	C542.571289,72.108589 549.513550,73.058159 556.431091,72.903236 
	C572.163025,72.550926 587.890259,71.784805 603.601318,70.873901 
	C606.771118,70.690125 609.860779,69.122444 613.385559,68.054131 
	C627.191711,65.629852 640.599670,63.344242 654.268188,61.326714 
	C662.259644,59.696384 669.990601,57.797974 677.569092,55.822273 
	C677.214905,55.534439 677.222046,55.331524 677.810669,55.391258 
	C679.148315,55.585361 680.161987,55.695137 681.070801,55.436596 
	C688.530273,53.314598 695.975037,51.140625 703.414856,48.950489 
	C714.614746,45.653481 725.806946,42.330635 737.413757,39.013851 
	C748.397278,36.429554 758.978027,33.883965 769.526794,31.212120 
	C770.455200,30.976976 771.174194,29.915474 772.336426,29.083916 
	C780.028442,27.286674 787.347900,25.511381 794.726135,24.028555 
	C808.357239,21.289085 821.968506,18.385996 835.687744,16.167356 
	C852.409912,13.463090 869.234802,11.394341 886.318726,9.320309 
	C893.845764,9.062926 901.061707,8.362673 908.294434,8.043370 
	C925.858765,7.267961 943.430969,6.669658 961.000000,6.000000 
z"/>
</svg>