<svg version="1.1" id="Layer_1" xmlns="http://www.w3.org/2000/svg" xmlns:xlink="http://www.w3.org/1999/xlink" x="0px"
	y="0px" width="100%" viewBox="0 0 901 1072" enable-background="new 0 0 901 1072" xml:space="preserve">
	<path fill="#ECF3FA" opacity="1.000000" stroke="none" d="
M1.000004,378.468689 
	C9.251319,375.142914 17.507462,372.299652 25.753141,369.426392 
	C72.463066,353.150146 120.311722,343.251587 170.005920,344.023926 
	C230.652481,344.966431 286.777283,361.861328 338.210419,393.634430 
	C385.756775,423.006500 427.800598,458.778900 460.933105,504.284912 
	C488.655640,542.360657 504.234558,585.204590 510.983368,631.534363 
	C514.820251,657.873474 518.088684,684.316956 522.772888,710.506042 
	C529.728821,749.395813 552.626038,776.075562 587.814087,793.400940 
	C620.624390,809.555664 655.215698,820.522034 690.051636,831.005859 
	C727.598145,842.305359 765.299683,853.144348 802.539062,865.384583 
	C818.042419,870.480469 832.754578,878.223755 847.418884,885.576294 
	C869.917969,896.857056 879.902832,916.361389 882.047302,940.738159 
	C886.364807,989.815979 869.173279,1031.018555 836.389709,1066.595825 
	C834.584290,1068.555176 832.668457,1070.413086 830.901978,1072.659058 
	C554.412659,1073.000000 277.825287,1073.000000 1.000000,1073.000000 
	C1.000000,841.645813 1.000000,610.291565 1.000004,378.468689 
z" />
	<path fill="#EBF2F9" opacity="1.000000" stroke="none" d="
M744.918579,550.001526 
	C810.052917,552.388000 859.295532,606.227051 855.869568,670.781433 
	C852.969666,725.423584 809.757568,771.123413 755.274353,777.167908 
	C684.402161,785.030640 624.613403,728.740967 628.119080,657.454407 
	C630.799927,602.942200 674.286560,556.736206 728.496460,550.902771 
	C733.780212,550.334290 739.120300,550.288147 744.918579,550.001526 
z" />
	<path fill="#EBF2F9" opacity="1.000000" stroke="none" d="
M178.001434,88.018784 
	C177.323013,126.619347 147.060837,156.276352 109.117012,156.001328 
	C72.049187,155.732651 41.917850,125.082481 41.998543,87.727158 
	C42.078495,50.713963 72.297539,20.239241 109.158806,19.998652 
	C147.116684,19.750906 177.380524,49.444092 178.001434,88.018784 
z" />
</svg>