<svg width="517" height="527" xmlns="http://www.w3.org/2000/svg" xml:space="preserve" enable-background="new 0 0 608 608" version="1.1">

 <g>
  <title>Layer 1</title>
  <path id="svg_1" d="m10.64749,272.99988c0.00027,-21.16425 0.11772,-41.82968 -0.08967,-62.49185c-0.0458,-4.56374 1.32651,-6.19397 5.93474,-5.93334c7.43186,0.42037 14.51728,-1.40741 21.32464,-4.38344c3.38215,-1.4786 5.03503,-3.60501 4.9302,-7.63784c-0.28572,-10.99131 0.11075,-22.00019 -0.16637,-32.99192c-0.21847,-8.66517 3.06415,-14.79205 11.18307,-18.15057c0.5826,-0.241 1.04598,-0.77019 1.7311,-1.29207c-1.41469,-4.56085 -4.65295,-7.72731 -8.02361,-10.58836c-3.42087,-2.90363 -3.13798,-5.14159 -0.14334,-8.13185c17.92009,-17.89394 35.7301,-35.89808 53.58836,-53.85398c6.10941,-6.14281 12.41385,-12.10205 18.31184,-18.44044c3.05066,-3.27848 5.0783,-3.08586 8.01623,0.09514c9.83464,10.64836 21.89088,15.77004 36.62353,14.68742c17.9305,-1.3176 34.77238,-16.20369 37.76482,-33.95645c0.63607,-3.77358 1.45959,-7.56402 0.98362,-11.40281c-0.5951,-4.7995 1.71624,-5.94015 6.06505,-5.92066c26.32968,0.11802 52.66022,0.05081 78.99045,0.0462c7.16583,-0.00125 14.3566,0.36629 21.48938,-0.11935c5.42252,-0.36919 6.31824,1.90347 6.27469,6.64323c-0.11997,13.04985 4.06357,24.49476 13.84781,33.56593c16.80767,15.58281 41.936,15.28625 58.82977,-0.73203c6.78577,-6.43403 6.84421,-6.49263 13.46005,0.11154c23.11606,23.07513 46.19065,46.19178 69.26929,69.30442c1.15625,1.15798 2.55267,2.16834 2.98694,3.93532c-1.18598,2.53066 -3.4953,4.01726 -5.29047,5.94306c-12.85104,13.78625 -16.37616,29.7734 -9.17297,47.04867c7.1543,17.15802 21.08679,25.62808 39.62829,26.25922c8.27668,0.28174 8.32746,0.11522 8.33216,8.15649c0.01928,32.8295 -0.08417,65.65952 0.1109,98.48786c0.02869,4.82672 -1.37866,6.23849 -6.19116,6.18316c-17.51044,-0.20132 -31.27979,6.74512 -40.15171,22.29859c-0.90976,1.59497 -1.69247,3.19632 -1.76583,5.12616c-0.35331,9.29297 -0.06382,18.57623 -0.79093,27.90261c-0.52435,6.72532 4.74002,12.22226 9.25003,17.18058c6.26141,6.88366 6.41797,6.8789 -0.17499,13.78167c-5.29336,5.54215 -10.81109,10.86954 -16.19092,16.33002c-1.38281,1.40354 -3.07177,2.58524 -3.85607,4.83637c1.64709,2.40902 4.5892,2.95947 6.97854,4.29739c3.04953,1.70761 6.2507,3.14337 9.31113,4.83285c7.49902,4.13977 11.36651,10.56565 11.45953,19.11112c0.0951,8.73642 -4.31555,15.03424 -11.77557,18.87604c-19.39209,9.98657 -39.20349,19.18567 -58.34778,29.61633c-10.9603,5.97174 -22.04147,7.92554 -34.35959,7.88696c-95.65457,-0.29968 -191.31051,-0.15191 -286.96603,-0.17969c-20.82582,-0.00604 -37.59545,-13.6015 -40.68423,-33.96606c-1.2863,-8.48065 -0.49527,-17.28747 -0.51017,-25.9462c-0.01089,-6.32538 -0.33669,-12.71963 0.45201,-18.96005c1.069,-8.4584 5.16575,-15.74185 11.28333,-21.98105c-1.68055,-2.97452 -4.28641,-4.83862 -6.46853,-7.04791c-4.63429,-4.69214 -4.68812,-4.65802 -0.1134,-9.1293c9.38245,-9.17026 14.54428,-20.06653 14.18165,-33.42734c-0.62328,-22.96384 -18.66433,-40.79086 -42.20081,-41.50513c-9.13706,-0.27725 -9.14611,-0.27725 -9.1542,-9.38119c-0.01022,-11.49781 -0.00382,-22.99564 -0.0048,-34.99347m267.85242,123.64865c19.49753,0.00003 38.99512,0.03253 58.49255,-0.01288c10.61695,-0.02472 9.48896,1.26968 9.70874,-9.61157c0.0679,-3.36045 -0.466,-5.38925 -4.31665,-6.43012c-7.43448,-2.00967 -11.70099,-8.19357 -11.71176,-16.05673c-0.04333,-31.66321 -0.04178,-63.32654 0.00119,-94.98975c0.01074,-7.932 3.67975,-13.54574 11.17035,-15.9385c3.97739,-1.27048 4.89551,-3.25672 4.8822,-7.13211c-0.13092,-38.16213 -0.07397,-76.32489 -0.07748,-114.48747c-0.00061,-6.62984 -0.01605,-6.63692 -6.6413,-6.63669c-53.16098,0.00186 -106.32199,-0.01355 -159.48292,0.02777c-10.43212,0.00812 -8.90981,-1.19487 -9.2538,9.4767c-0.13733,4.26022 1.0906,6.22124 5.6015,5.84124c3.30893,-0.27873 6.66206,-0.08885 9.994,-0.02737c9.54703,0.17616 16.41177,6.90779 16.42836,16.42269c0.06508,37.32919 0.07492,74.65861 0.00907,111.9878c-0.01629,9.22882 -6.89846,16.01901 -16.11664,16.25354c-3.33095,0.08475 -6.69055,0.28394 -9.99254,-0.03314c-4.59001,-0.44067 -5.99107,1.24023 -5.96543,5.88403c0.18322,33.16208 0.20107,66.32624 -0.00607,99.48801c-0.031,4.96439 1.61444,6.09723 6.2878,6.0723c33.32882,-0.17761 66.65902,-0.09671 100.98883,-0.09775m161.96588,-248.38672c1.34857,-6.79306 4.10407,-13.05217 7.92245,-18.74127c1.92121,-2.86244 2.07139,-4.5492 -0.5448,-7.13103c-16.95938,-16.73685 -33.77282,-33.62245 -50.5234,-50.56873c-2.22589,-2.2519 -3.86951,-2.24058 -6.37778,-0.55417c-9.34094,6.28032 -19.75543,9.66929 -30.97324,9.95341c-29.0224,0.73504 -53.15084,-18.23019 -60.08709,-47.18059c-0.8017,-3.34603 -2.00427,-4.77391 -5.57776,-4.75514c-23.66135,0.12436 -47.3237,0.10933 -70.98544,0.03896c-3.193,-0.00949 -4.5022,0.92877 -5.20154,4.3518c-6.36353,31.14728 -35.52782,51.26359 -67.18689,46.819c-9.97118,-1.39983 -18.67533,-5.66203 -26.89078,-10.84916c-2.20277,0.85625 -3.42003,2.50121 -4.81586,3.89533c-15.79838,15.77898 -31.43473,31.72434 -47.45977,47.26917c-3.7341,3.6222 -4.51997,6.30542 -1.14695,10.27934c1.26225,1.48712 2.14642,3.41104 2.79534,5.27751c1.16913,3.3627 3.29092,4.42002 6.81801,4.35205c10.99377,-0.21184 21.99853,-0.26123 32.98973,0.00742c4.23369,0.10348 7.06218,-1.36344 9.95102,-4.36853c46.17129,-48.02936 102.27656,-68.04172 168.06687,-56.59744c60.24311,10.47932 104.07715,44.57725 132.50376,98.47201c11.56433,21.92508 17.3403,45.61307 19.38824,70.23868c0.19818,2.38293 0.70288,3.7485 3.40433,4.57059c9.18485,2.79489 12.78046,8.06024 12.79352,17.79296c0.01724,12.83078 -0.01636,25.66166 0.04858,38.49213c0.00782,1.53458 -0.72949,3.32721 1.25342,4.90454c7.53089,-6.16202 16.11041,-10.51761 25.73352,-12.36395c3.38684,-0.64984 4.34137,-2.12656 4.3302,-5.33127c-0.08252,-23.66168 -0.07892,-47.32391 0.0011,-70.9856c0.01068,-3.15634 -0.87036,-4.70184 -4.26105,-5.41503c-35.72061,-7.5134 -53.28457,-42.71302 -45.96774,-71.87299m-125.96588,344.38809c19.64956,0.00116 39.29965,-0.07397 58.94818,0.06989c3.78982,0.02771 5.43173,-0.9303 5.27289,-5.04102c-0.28269,-7.31598 -0.1814,-14.65301 -0.02844,-21.97674c0.06732,-3.22306 -1.08823,-4.5614 -4.3544,-4.39743c-3.4882,0.17511 -6.99192,0.04086 -10.48887,0.04098c-67.44116,0.0026 -134.88244,0.04587 -202.32336,-0.0816c-4.64443,-0.00879 -6.62524,1.0408 -6.28674,6.05767c0.4138,6.13324 0.08688,12.31592 0.09468,18.47718c0.00865,6.83234 0.01573,6.84875 6.79805,6.84936c50.45599,0.00446 100.91198,0.00189 152.36801,0.00171m-153.72437,-79.2879c-3.9895,-0.52405 -5.71502,0.92212 -5.52665,5.22906c0.30546,6.98536 0.28472,14.00126 0.01458,20.98926c-0.15419,3.98856 1.24631,5.18039 5.16695,5.13861c16.49487,-0.17581 32.99269,-0.07367 49.48944,-0.07336c53.98935,0.00101 107.9787,0.00326 161.96805,0.0014c6.73019,-0.00021 6.74084,-0.01019 6.75686,-6.50744c0.01478,-5.99878 0.01005,-11.99765 0.00178,-17.99646c-0.00934,-6.78369 -0.0152,-6.78635 -6.97855,-6.78626c-69.98618,0.00095 -139.97238,0.00281 -210.89246,0.00519m247.72452,-144.00403c-18.643,0.00199 -37.28644,0.07324 -55.92859,-0.05295c-3.69491,-0.02499 -5.36096,0.80295 -5.3374,4.97821c0.16049,28.46292 0.13232,56.92728 0.03372,85.39075c-0.01224,3.53818 0.89786,5.06046 4.74994,5.0441c28.62976,-0.12146 57.26038,-0.10101 85.89041,-0.01752c3.29782,0.00961 4.80393,-0.83575 4.79077,-4.47269c-0.104,-28.79632 -0.10049,-57.59338 0.00324,-86.38973c0.01288,-3.57505 -1.37756,-4.59739 -4.73908,-4.54389c-9.48559,0.15094 -18.97503,0.05972 -29.46301,0.06372m-246.83316,-64.46486c7.98827,13.23396 15.97655,26.46791 23.96481,39.70189c1.01207,-27.45895 0.9101,-54.43166 1.10878,-81.40214c0.03459,-4.69773 -1.5231,-5.93461 -6.03944,-5.91703c-38.47069,0.14975 -76.94263,0.17749 -115.41289,-0.0151c-4.98646,-0.02498 -6.07886,1.65815 -6.04788,6.31082c0.19186,28.81053 0.09121,57.62297 0.13535,86.43468c0.00241,1.57009 -0.60456,3.30584 -0.18515,3.78671c11.10255,-10.96512 22.20268,-21.92786 33.17625,-32.7656c-14.05549,-7.89096 -19.33659,-16.12108 -17.5783,-27.93759c1.47471,-9.91076 9.58662,-18.73353 19.6704,-20.11003c14.99808,-2.04733 24.33643,5.37337 28.998,19.39768c4.16045,-1.32657 7.58864,-3.50248 11.69547,-3.73316c12.28831,-0.69018 20.60086,5.10648 26.5146,16.24887m235.79269,-37.87681c-9.3677,-13.32622 -19.86288,-25.57543 -32.89434,-35.44614c-1.64051,1.56956 -1.21964,2.97917 -1.22043,4.24799c-0.0239,37.12117 -0.02313,74.24237 -0.01523,111.36355c0.00058,2.6265 -0.57223,5.50861 3.69913,5.49088c18.31057,-0.07602 36.6217,-0.05799 54.9324,0.00055c2.83408,0.00903 3.9314,-1.20243 3.71866,-3.93073c-0.12918,-1.65665 -0.00128,-3.33774 -0.19058,-4.98468c-3.16883,-27.57043 -12.20435,-53.01907 -28.02961,-76.74142m-269.49522,229.63528c1.49718,-0.23151 3.20929,0.55969 4.5833,-0.7225c-0.31037,-0.4935 -0.439,-0.81897 -0.66705,-1.04349c-29.90293,-29.43893 -48.74807,-64.62891 -55.16443,-106.24796c-0.40251,-2.61087 -1.75601,-3.29776 -4.04948,-3.28231c-4.16573,0.02804 -8.33213,0.01037 -12.49789,-0.02716c-10.77324,-0.09708 -17.46442,-6.7071 -17.50222,-17.41681c-0.05294,-14.99759 0.00769,-29.99558 -0.04953,-44.99314c-0.0066,-1.72888 0.67437,-3.68805 -1.23465,-5.39038c-3.02898,0.84595 -6.15022,2.08008 -9.37988,2.52222c-3.54404,0.48514 -4.74251,2.04062 -4.72624,5.55774c0.10948,23.66263 0.09883,47.32611 0.02058,70.98895c-0.01065,3.21808 1.02169,4.60544 4.36447,5.31061c14.0012,2.95361 25.70654,9.90204 34.6228,21.23016c16.06865,20.41522 17.26895,46.22309 3.34762,69.63068c-0.78719,1.32358 -2.56304,2.55215 -1.33697,4.43008c1.32449,2.02875 3.18015,1.21076 4.93912,0.64814c3.54044,-1.13248 7.18547,-1.22791 10.86812,-1.21546c14.33104,0.04852 28.66233,0.021 43.86233,0.02063m-26.70128,-79.30032c10.58855,29.44397 28.10315,53.90808 52.22945,73.70852c1.57825,-1.3114 1.13168,-2.56768 1.13263,-3.6564c0.02832,-32.28195 -0.04486,-64.56427 0.10383,-96.84558c0.02011,-4.36694 -1.74286,-5.30133 -5.6461,-5.26627c-16.8053,0.15088 -33.6127,0.05997 -50.41917,0.10761c-1.59435,0.00455 -3.34792,-0.48267 -5.04882,1.13928c1.21309,10.18833 3.91237,20.22153 7.64818,30.81284m-0.01962,-78.60727c-9.54031,9.54599 -19.08063,19.09198 -29.31287,29.33029c36.44579,0 71.43195,0 107.08503,0c-1.00442,-2.20545 -1.54422,-3.76669 -2.37368,-5.15494c-10.33374,-17.29486 -20.64639,-34.60293 -31.10682,-51.8211c-3.96113,-6.52018 -9.39617,-7.15822 -14.81691,-1.82178c-9.73217,9.58075 -19.32585,19.30215 -29.47475,29.46753m-29.31067,250.95688c10.29137,5.04364 21.28561,2.34393 31.98174,2.82232c2.85159,0.12751 2.71669,-2.38134 2.71771,-4.39715c0.01182,-23.47086 -0.02765,-46.9419 0.06111,-70.41242c0.01214,-3.21081 -1.08217,-4.49231 -4.34837,-4.41082c-6.48803,0.16189 -12.98845,-0.11356 -19.47327,0.10409c-11.65387,0.39115 -20.61578,7.76117 -22.71632,19.37717c-2.0223,11.18341 -0.52688,22.56924 -0.79135,33.86194c-0.2274,9.71008 3.50231,17.46191 12.56875,23.05487m345.05707,-13.22217c1.04172,-0.52368 2.03348,-1.21558 3.13367,-1.54242c5.32193,-1.5813 6.95489,-5.02185 6.6506,-10.50903c-0.46982,-8.47113 -0.26215,-16.99085 -0.05515,-25.48297c0.08027,-3.29349 -1.0176,-5.19282 -3.99728,-6.60334c-7.82565,-3.7045 -15.52023,-7.68515 -23.29089,-11.50729c-1.11478,-0.54831 -2.25663,-1.58396 -3.73477,-0.48963c0,21.85264 0,43.74131 0,66.74204c7.34881,-3.67664 13.97839,-6.99335 21.29382,-10.60736m-12.62412,-72.38294c7.29773,3.65253 14.67453,7.1583 21.85617,11.0264c3.07132,1.65421 5.08182,1.21579 7.37247,-1.26105c3.84305,-4.15551 7.97382,-8.04507 11.98541,-12.04461c5.2125,-5.19675 5.18918,-5.18195 1.38312,-11.75232c-0.99945,-1.72537 -1.96896,-3.50467 -2.64889,-5.36978c-0.95435,-2.61768 -2.68937,-3.41669 -5.36658,-3.39505c-12.32904,0.09967 -24.6593,0.05063 -36.98911,0.07144c-1.32214,0.00226 -2.80206,-0.198 -3.80163,0.85001c-4.20056,4.40417 -8.32712,8.87887 -12.89374,13.76998c3.72394,0.99643 6.73099,1.81647 9.50067,3.30069c2.93448,1.57261 5.95383,2.98688 9.60211,4.80429m-106.06311,-305.774c-36.32611,-8.68744 -71.54471,-5.54407 -105.61073,9.75891c43.39888,0 86.79778,0 130.19667,0c0.0965,-0.45022 0.19296,-0.90046 0.28943,-1.35069c-7.67203,-3.67212 -15.87335,-5.95436 -24.87537,-8.40822m-174.97836,376.17726c0.00252,2.99292 -0.02554,5.98621 0.01314,8.9787c0.13229,10.23248 -1.41257,8.89429 9.43439,9.26752c4.53961,0.15619 6.02749,-1.18054 5.97718,-5.86493c-0.23033,-21.44665 -0.06889,-42.89731 -0.10783,-64.34637c-0.01877,-10.34455 1.18606,-8.91715 -9.43941,-9.26285c-4.51541,-0.14685 -6.03985,1.16284 -5.97375,5.85858c0.25515,18.12009 0.09922,36.24594 0.09628,55.36935m320.02408,-20.08953c0,2.72479 0,5.44955 0,8.88928c4.6936,-2.37781 8.61416,-4.12806 12.28927,-6.29471c3.41678,-2.01434 3.90757,-5.17175 1.04505,-7.22049c-3.82071,-2.7345 -8.10269,-4.75388 -12.74631,-6.29611c-1.03717,3.72491 -0.39941,6.87869 -0.58801,10.92203m-342.60722,-264.49282c-6.52251,-0.34002 -10.80344,4.32861 -8.67551,9.51224c1.31323,3.199 3.77498,5.24669 7.22244,4.99518c3.58612,-0.2616 6.14438,-2.48825 6.9261,-6.11237c0.87564,-4.05948 -1.33009,-6.53215 -5.47303,-8.39505m272.39158,193.29811c0.42752,-0.55044 0.76968,-1.4837 -0.03256,-1.56244c-3.07401,-0.30151 -6.8364,-1.60162 -8.99146,0.80936c-1.78759,2 -1.14038,5.43579 -0.09726,8.47668c3.49625,-2.17248 6.13666,-4.67825 9.12128,-7.7236m-224.47435,-248.09219c-1.17766,1.45824 -3.38638,2.17592 -3.37744,4.5267c8.54556,2.77353 10.37241,1.09189 8.79544,-8.09359c-2.05298,0.40942 -3.38434,1.92338 -5.418,3.56689z" fill="#298AE5"/>
  <path id="svg_2" d="m312.7865,349.24383c-40.45261,0.06693 -80.42661,0.0055 -120.39949,0.19233c-4.81683,0.02249 -5.92848,-1.78171 -5.79851,-6.13755c0.37006,-12.40173 -1.47381,-10.58795 10.60298,-10.61737c35.97625,-0.08767 71.95302,-0.08212 107.92931,0.00275c11.53549,0.02722 10.10812,-1.68259 10.13601,10.50144c0.0048,2.09506 1.12357,4.83334 -2.4703,6.0584z" fill="#298AE5"/>
  <path id="svg_3" d="m265.99994,317.36133c-24.80786,-0.00772 -49.1163,-0.10977 -73.42291,0.05957c-4.51154,0.0314 -6.15148,-1.28247 -6.00266,-5.92905c0.40724,-12.71554 -1.46979,-10.77594 10.9151,-10.80685c36.961,-0.09232 73.92236,-0.03238 110.88361,-0.01999c6.9212,0.00232 6.98794,0.02841 6.92077,6.78949c-0.11248,11.32538 1.13892,9.80597 -9.83487,9.87491c-12.9859,0.08154 -25.97265,0.02682 -39.45904,0.03192z" fill="#298AE5"/>
  <path id="svg_4" d="m317.99081,221.35968c-31.30822,-0.00388 -62.11822,-0.1106 -92.92624,0.08954c-4.99871,0.03241 -6.7174,-1.34674 -6.50839,-6.46106c0.48645,-11.90479 -1.36618,-10.28182 10.45227,-10.31079c31.97495,-0.07837 63.95084,0.0827 95.92459,-0.12386c5.0199,-0.03244 6.69108,1.3524 6.49067,6.44716c-0.47461,12.0658 1.2503,10.13931 -10.43598,10.3541c-0.83243,0.01532 -1.66534,0.00335 -2.99692,0.00491z" fill="#298AE5"/>
  <path id="svg_5" d="m302.00012,172.64699c8.66202,0.00546 16.82541,0.09823 24.98542,-0.02661c3.22821,-0.0494 4.41702,1.2032 4.36883,4.40675c-0.22784,15.14542 1.67792,12.19534 -11.89972,12.269c-31.48126,0.17077 -62.96481,-0.04914 -94.44556,0.1654c-5.082,0.03462 -6.64825,-1.48538 -6.45254,-6.519c0.46359,-11.92562 -1.33908,-10.22178 10.48462,-10.2676c24.15265,-0.09362 48.30591,-0.0279 72.95895,-0.02794z" fill="#298AE5"/>
  <path id="svg_6" d="m302.98459,268.64945c13.44913,0.02477 13.37588,0.01898 12.3501,12.94296c-0.22059,2.77917 -1.30371,3.76877 -3.98908,3.76486c-29.46383,-0.04282 -58.92786,-0.05942 -88.3916,0.00925c-3.27466,0.00763 -4.36725,-1.31708 -4.31998,-4.46415c0.22242,-14.8056 -1.70801,-12.11416 11.44275,-12.20507c24.13602,-0.1669 48.27402,-0.04773 72.90781,-0.04785z" fill="#298AE5"/>
  <path id="svg_7" d="m231.01398,236.64526c26.3107,0.00409 52.12561,0.1355 77.93728,-0.09597c5.04502,-0.04523 6.66141,1.39917 6.4751,6.46814c-0.44382,12.07275 1.19846,10.27685 -10.44635,10.31628c-26.64618,0.09024 -53.29382,-0.09537 -79.93848,0.12485c-5.03271,0.04159 -6.69903,-1.40732 -6.48452,-6.4892c0.51419,-12.18146 -1.64377,-10.07098 12.45697,-10.3241z" fill="#298AE5"/>
  <path id="svg_8" d="m331.32635,150.93823c0.58921,4.90712 -1.02664,6.58284 -5.77508,6.51302c-17.81729,-0.26204 -35.64163,-0.19452 -53.46137,-0.03359c-4.03118,0.0364 -5.625,-1.14251 -5.50552,-5.36819c0.38171,-13.50156 -1.64004,-11.24583 11.3577,-11.368c15.32156,-0.14401 30.64548,-0.03573 45.96838,-0.02865c7.39066,0.00342 7.39099,0.0119 7.41782,7.30461c0.00308,0.83276 -0.00031,1.66557 -0.00193,2.9808z" fill="#298AE5"/>
  <path id="svg_9" d="m249.74219,140.95886c2.73672,4.72557 1.29651,9.56975 1.37195,14.29265c0.03216,2.01187 -1.84626,2.07802 -3.36631,2.07909c-8.49164,0.00593 -16.9833,-0.02072 -25.47491,-0.04526c-0.49744,-0.00145 -1.17062,0.11275 -1.46558,-0.15428c-4.30261,-3.89553 -1.39615,-8.94741 -2.0234,-13.43978c-0.3993,-2.85983 1.92141,-3.02592 4.02975,-3.01582c8.82254,0.0423 17.64505,0.09236 26.9285,0.2834z" fill="#298AE5"/>
  <path id="svg_10" d="m201.73798,381.05512c-1.45308,0.20428 -2.4482,0.28811 -3.444,0.29724c-12.38218,0.11349 -13.3994,-1.08478 -11.57969,-13.59827c0.04781,-0.32877 -0.01002,-0.69537 0.11504,-0.98703c1.59845,-3.72791 4.9606,-2.0701 7.40309,-1.95297c2.98081,0.14291 7.72397,-2.28302 8.66795,2.01086c0.97849,4.4509 1.58037,9.49878 -1.16239,14.23017z" fill="#298AE5"/>
  <path id="svg_11" d="m230.86841,381.34296c-13.33286,-0.00632 -13.33267,-0.00629 -12.17353,-12.96442c0.04441,-0.49622 -0.10638,-1.13205 0.14597,-1.46909c3.54007,-4.72851 8.52878,-1.30023 12.77835,-2.16174c2.34485,-0.47546 3.73645,0.79157 3.67908,3.39612c-0.06949,3.15512 -0.08206,6.31488 0.00659,9.46908c0.07907,2.81495 -1.28113,3.9235 -4.43646,3.73005z" fill="#298AE5"/>
  <path id="svg_12" d="m250.78424,378.77429c-0.07934,-1.13873 -0.10855,-1.80273 -0.11353,-2.46695c-0.09338,-12.47833 0.9744,-13.39654 13.49173,-11.58697c0.65269,0.09433 1.39182,0.09994 1.92457,0.42181c1.74881,1.05667 1.82434,14.47284 0.14138,15.71567c-1.9129,1.41272 -13.44638,0.20636 -15.44415,-2.08356z" fill="#298AE5"/>
  <path id="svg_13" d="m399.36444,297.6059c12.48157,6.25393 24.62232,12.35553 36.76303,18.45712c0.07752,0.58493 0.155,1.16986 0.23249,1.75482c-24.16633,12.08975 -48.33265,24.17953 -73.3425,36.69128c0,-25.41592 0,-49.46753 0,-75.00445c12.46511,6.21381 24.23565,12.08136 36.34698,18.10123m-18.98315,28.55722c6.39126,-2.12668 12.121,-5.49924 18.94134,-9.12265c-6.96609,-3.86774 -12.85635,-6.96137 -19.90512,-9.82279c0.01993,6.80521 -0.49521,12.67792 0.96378,18.94544z" fill="#298AE5"/>
 </g>
</svg>